<svg xmlns="http://www.w3.org/2000/svg" xmlns:xlink="http://www.w3.org/1999/xlink" width="500" zoomAndPan="magnify" viewBox="0 0 375 374.999991" height="500" preserveAspectRatio="xMidYMid meet" version="1.0"><defs><clipPath id="f9c44156e6"><path d="M 7.226562 9.945312 L 367.882812 9.945312 L 367.882812 365.054688 L 7.226562 365.054688 Z M 7.226562 9.945312 " clip-rule="nonzero"/></clipPath><clipPath id="b9374285ff"><path d="M 52.226562 9.945312 L 322.773438 9.945312 C 334.707031 9.945312 346.152344 14.6875 354.59375 23.125 C 363.03125 31.566406 367.773438 43.011719 367.773438 54.945312 L 367.773438 320.054688 C 367.773438 331.988281 363.03125 343.433594 354.59375 351.875 C 346.152344 360.3125 334.707031 365.054688 322.773438 365.054688 L 52.226562 365.054688 C 40.292969 365.054688 28.847656 360.3125 20.40625 351.875 C 11.96875 343.433594 7.226562 331.988281 7.226562 320.054688 L 7.226562 54.945312 C 7.226562 43.011719 11.96875 31.566406 20.40625 23.125 C 28.847656 14.6875 40.292969 9.945312 52.226562 9.945312 Z M 52.226562 9.945312 " clip-rule="nonzero"/></clipPath><clipPath id="dac79b2a98"><path d="M 84.042969 78.164062 L 291 78.164062 L 291 297 L 84.042969 297 Z M 84.042969 78.164062 " clip-rule="nonzero"/></clipPath></defs><g clip-path="url(#f9c44156e6)"><g clip-path="url(#b9374285ff)"><path fill="#000000" d="M 7.226562 9.945312 L 367.882812 9.945312 L 367.882812 365.054688 L 7.226562 365.054688 Z M 7.226562 9.945312 " fill-opacity="1" fill-rule="nonzero"/></g></g><g clip-path="url(#dac79b2a98)"><path fill="#ffffff" d="M 175.390625 213.777344 L 175.390625 175.507812 C 171.582031 173.957031 167.539062 172.402344 163.210938 170.945312 C 148.167969 165.210938 137.636719 160.085938 131.902344 155.574219 C 126.214844 151.058594 123.488281 144.761719 123.488281 136.015625 C 123.488281 118.855469 134.347656 108.324219 152.117188 108.324219 C 161.566406 108.324219 169.417969 111.476562 174.730469 117.257812 L 174.730469 80.867188 C 168.148438 79.128906 160.910156 78.1875 153.011719 78.1875 C 133.40625 78.1875 118.078125 83.925781 106.609375 95.347656 C 95.183594 106.492188 89.449219 120.972656 89.449219 138.695312 C 89.449219 155.246094 94.242188 168.21875 103.601562 177.527344 C 113.238281 186.835938 128 194.96875 148.167969 201.929688 C 160.0625 205.878906 168.949219 209.640625 175.390625 213.777344 Z M 189.445312 182.089844 L 189.445312 82.089844 L 290.949219 82.089844 L 290.949219 113.730469 L 223.15625 113.730469 L 223.15625 171.558594 L 290.949219 171.558594 L 290.949219 203.152344 L 223.15625 203.152344 L 223.15625 227.691406 C 223.15625 254.914062 216.148438 277.007812 190.714844 289.46875 C 180.65625 294.402344 168.996094 296.800781 155.738281 296.800781 C 110.230469 296.800781 84.933594 270.613281 84.042969 229.667969 L 118.078125 229.667969 C 118.972656 253.738281 132.230469 266.996094 156.019531 266.996094 C 175.203125 266.996094 189.445312 256.886719 189.445312 236.90625 Z M 189.445312 182.089844 " fill-opacity="1" fill-rule="evenodd"/></g></svg>